# xmcd
# 
# Track frame offsets:
#     150
#     14055
#     24172
#     46387
# 
# Disc length: 1160
# 
# Revision: 0
# Processed by: cddbd v1.5.2PL0 Copyright (c) Steve Scherf et al.
# Submitted via: fre:ac v1.0.17
# 
DISCID=28048604
DTITLE=I Am Kloot - 3 Feet Tall [CD2)
DYEAR=2003
DGENRE=
TTITLE0=3 Feet Tall
TTITLE1=Monkeys
TTITLE2=Big Tears
TTITLE3=Data track
EXTD=
EXTT0=
EXTT1=
EXTT2=
EXTT3=
PLAYORDER=
